<svg xmlns="http://www.w3.org/2000/svg" xmlns:xlink="http://www.w3.org/1999/xlink" width="147" height="143" viewBox="0 0 147 143"><defs><radialGradient id="a" cx="0.5" cy="0.5" r="1.635" gradientTransform="translate(0 -0.04) scale(1 1.08)" gradientUnits="objectBoundingBox"><stop offset="0" stop-color="#3371a7"/><stop offset="1" stop-color="#143353"/></radialGradient></defs><rect width="147" height="143" rx="19" fill="url(#a)"/><g transform="translate(28 28)" style="isolation:isolate"><path d="M10,0H81A10,10,0,0,1,91,10V39a6,6,0,0,1-6,6H6a6,6,0,0,1-6-6V10A10,10,0,0,1,10,0Z" transform="translate(0 51)" fill="#86b7d8"/><rect width="36.1" height="46.832" rx="8" transform="translate(27)" fill="#86b7d8"/><path d="M39.484,1050.277l-28.683.343L7.109,1061.6l-.023-.046v-10.447a7.5,7.5,0,0,1,7.5-7.5h21.1a7.5,7.5,0,0,1,7.5,7.5v10.574Z" transform="translate(19.913 -1043.612)" fill="#5185a8"/><rect width="7" height="13" rx="3" transform="translate(21 17)" fill="#86b7d8"/><rect width="7" height="13" rx="3" transform="translate(62 17)" fill="#86b7d8"/></g></svg>