<svg xmlns="http://www.w3.org/2000/svg" xmlns:xlink="http://www.w3.org/1999/xlink" width="62.999" height="53.914" viewBox="0 0 62.999 53.914"><defs><radialGradient id="a" cx="0.5" cy="0.569" r="1.049" gradientTransform="matrix(1, -0.018, 0.027, 1.513, -0.015, -0.283)" gradientUnits="objectBoundingBox"><stop offset="0" stop-color="#53819f"/><stop offset="1" stop-color="#05206a"/></radialGradient></defs><g transform="translate(1.567 1.689)"><path d="M34.092,1092.518H18.437a2,2,0,0,1-2-2v-19.262H14.789a4,4,0,0,1-2.551-7.081l25.925-21.462a4,4,0,0,1,5.1,0l25.925,21.462a4,4,0,0,1-2.551,7.081H64.992v19.262a2,2,0,0,1-2,2H47.826v-9.623h-.039a6.86,6.86,0,0,0-13.656,0h-.039v9.623h0Z" transform="translate(-10.781 -1041.793)" stroke="#adb3d4" stroke-width="3" fill="url(#a)"/></g></svg>